<svg width="100%" height="100%" viewBox="0 0 100 100" xmlns="http://www.w3.org/2000/svg" preserveAspectRatio="xMidYMid meet">
  <defs>
    <linearGradient id="webosGradient" x1="0%" y1="0%" x2="100%" y2="100%">
      <stop offset="0%" stop-color="#2c3e50" />
      <stop offset="50%" stop-color="#34495e" />
      <stop offset="100%" stop-color="#2c3e50" />
    </linearGradient>
    <radialGradient id="centralLight" cx="50%" cy="50%" r="50%" fx="50%" fy="50%">
      <stop offset="0%" stop-color="rgba(80, 100, 120, 0.2)" />
      <stop offset="100%" stop-color="rgba(0, 0, 0, 0)" />
    </radialGradient>
    <style>
      .grid-line {
        stroke: rgba(255, 255, 255, 0.08);
        stroke-width: 0.1;
      }
      .shape-fill {
        fill: rgba(255, 255, 255, 0.05);
        stroke: rgba(255, 255, 255, 0.1);
        stroke-width: 0.05;
      }
    </style>
  </defs>

  <rect x="0" y="0" width="100" height="100" fill="url(#webosGradient)" />
  <rect x="0" y="0" width="100" height="100" fill="url(#centralLight)" />

  <g class="grid-lines">
    <line x1="0" y1="18.5" x2="100" y2="18.5" class="grid-line" />
    <line x1="0" y1="37" x2="100" y2="37" class="grid-line" />
    <line x1="0" y1="55.5" x2="100" y2="55.5" class="grid-line" />
    <line x1="0" y1="74" x2="100" y2="74" class="grid-line" />
    <line x1="15.6" y1="0" x2="15.6" y2="100" class="grid-line" />
    <line x1="31.2" y1="0" x2="31.2" y2="100" class="grid-line" />
    <line x1="46.8" y1="0" x2="46.8" y2="100" class="grid-line" />
    <line x1="62.4" y1="0" x2="62.4" y2="100" class="grid-line" />
    <line x1="78" y1="0" x2="78" y2="100" class="grid-line" />
  </g>

  <g opacity="0.4">
    <polygon points="5.2 9.2, 20.8 4.6, 15.6 27.7, 0 37" class="shape-fill" transform="rotate(15 13 18) translate(2.6 4.6)"/>
    <rect x="78" y="64.8" width="15.6" height="18.5" class="shape-fill" transform="rotate(-20 86 74)"/>
    <circle cx="41.6" cy="18.5" r="7.8" class="shape-fill" transform="scale(1.2) translate(-2.6 4.6)"/>
    <path d="M 26 74 Q 36.4 88 46.8 74 T 57.2 59.3" class="shape-fill" style="fill:none; stroke: rgba(255,255,255,0.08); stroke-width:0.2;"/>
  </g>

  <text x="50%" y="45%" text-anchor="middle" dominant-baseline="middle"
        font-family="'Segoe UI', Arial, sans-serif" font-size="6" font-weight="bold"
        fill="rgba(255, 255, 255, 0.05)">
    webdesktop
  </text>
  <text x="50%" y="55%" text-anchor="middle" dominant-baseline="middle"
        font-family="'Segoe UI', Arial, sans-serif" font-size="2.6"
        fill="rgba(255, 255, 255, 0.08)">
  lightweight Desktop Environment
  </text>
  <text x="50%" y="60%" text-anchor="middle" dominant-baseline="middle"
        font-family="'Segoe UI', Arial, sans-serif" font-size="1.5"
        fill="rgba(255, 255, 255, 0.08)">
    by edmundsparrow
  </text>

</svg>
